<?xml version='1.0' encoding='utf-8'?>
<svg xmlns="http://www.w3.org/2000/svg" data-name="Layer 1" viewBox="0 0 4500 4500"> <defs> <style>.cls-1{fill:#d3b787;}.cls-2{fill:#62393c;}.cls-3{fill:#fcf7e1;}.cls-4{fill:#71b09e;}.cls-5{fill:none;}</style> </defs> <rect class="cls-1" width="4500" height="4500"/> <path class="cls-2" transform="translate(-1.68 1.38)" d="M3795.48,3435.31c-36.59-3.35-73.31-2.85-110-3.17-7.88-.09-17.75,2.13-23.19-1.67-8.51-6,1.18-14.72,1.95-22.42,8.47-85.72,19.88-171.12,27.67-256.94,1.49-16.66-3-35.86,10.1-50,9.19-10,12.31-21,12.13-34-.18-15.8.18-31.65.23-47.46.09-25.9-13.68-41.3-39.71-43.11-14.63-1-29.39-.72-44.07-.5-9.28.14-13.17-2.62-8.15-11.77,7.39-13.31,12.82-27.76,23.37-39.17q38.58-69.42,77.12-138.88c2.49-4.44,5.07-8.83,7.11-13.45,3-6.84,6.43-15.13-1.9-19.47-9.24-4.81-10.83,5.47-13.82,10.59-12.49,21.42-24.36,43.2-36.5,64.8-2.17,3.81-3.48,9.47-8.69,9.2-4.62-.23-5.12-5.48-5.61-9.29-1-7.29-5-9.51-11.78-8.19-8,1.54-7.24,7.51-6.29,13.17.45,2.72,1.22,6.25,3.12,7.66,18.48,13.58,8.92,26.62,0,40.16-8.65,13.18-16.75,26.67-25.13,40-18.88,53.71-20.6,54.89-76.44,54.16-6.79-.09-13.58-.54-20.38-.13-9,.54-11.86-3.72-11.63-12.19.54-16.39.49-32.78.67-49.13-.22-31.61.91-63.3-1.26-94.78-.91-13.31,18-23.09,12.13-26-12.54-6.3-11.05-14.36-11.14-23.64-.22-25.95,0-51.9-.22-77.84,0-6.43,1.49-15.08-8.79-15.08-10.64,0-8.15,8.87-8.24,15.17-.32,20.28,1.4,40.75-.59,60.9-5.3,53.75,5.26,107.6-1.9,161.21,3.26,16.26,1.72,32.65,1.4,49-.13,5.53-.22,12.37-8.24,12.37-24.22,0-49.85,4.25-72.22-2.36-15.54-4.57-19.43-28.71-28.22-44.29-12.13-21.82-24.36-43.56-36.27-65.48-2.85-5.25.36-9.46,3.4-13.85a57.79,57.79,0,0,0,7.56-14.9c1.49-4.76-1.13-9.28-5.48-11.28-6.66-3.12-5,4-6.84,6.61-2.49,3.49-2.89,9.56-8.78,8.74-5.26-.72-5.39-6.52-7.47-10.32-12.64-22.6-25.14-45.28-38.09-67.74-3.44-6-8.87-12.32-16.3-7.7-7.15,4.48-2.08,11.09.82,16.39q38.31,70.58,76.75,141.15c3,5.39,5.39,11.09,8,16.71,8.92,9.82,12.63,22.55,19,33.82,5.8,10.37,2.9,15.63-9.6,15.36-18.11-.41-36.23-.82-54.29-.05-19.7.81-37,13.13-37.09,30.66-.23,33.87-13.9,70.46,15.3,100.07,1.41,1.45,2,4,2.27,6.16,3.35,32.61,6.93,65.16,9.73,97.81,5.89,69.74,11.28,139.57,23.33,208.58,1.81,10.55-.14,14.4-11.32,14-26-.9-52-1.09-78.07-1.22-7.43-.05-11-2.36-12.37-10.28-2-12.41-8.92-22.82-21.55-25.9-11.23-2.76-12.32-9.38-11.73-18.61,1-16.58-5.8-30.16-18.34-40.08-12.27-9.74-26.76-17.12-22.64-36.81.41-2-2.08-5.48-4.12-6.89-9.87-6.75-10.33-16.57-10.37-27-.36-93.33-1.27-186.71-1.41-280.08q-.33-247-.09-494,0-204.58.05-409.14c0-7.42-4.8-17.43,12.27-15.76,21.6,2.13,40.67-15.75,46-37.4,4.17-17.16-6.11-38.31-25.17-47-9.24-4.21-10.87-9.78-10-18.16,1.22-12-1.27-23.05-11.19-30.38-8.83-6.61-10.5-14.81-10.5-25,0-73.54-.36-147.13-.45-220.67q-.14-173.15-.14-346.33c-.05-32.65-1.5-65.34-7.65-97.4-9.06-47.32-30.43-89.66-55.75-130.15l-.18-.31a9.58,9.58,0,0,1-6-7.2c-5.75-7-11.32-14.13-17.3-20.88-82.05-93-184.8-143.46-309-145.09-133.41-1.72-266.81-.86-400.22,0-47.95.32-94.14,10.19-135.21,37.09-37.77,24.68-66.07,56.11-73.09,102.75a21.71,21.71,0,0,1-7.79,14.35c-11,9.2-16.26,21.56-15,36,.86,10-3,14.67-12.86,18-72.14,24.46-119.15,72.68-137,147.72-1.13,10.55,5.08,22.41-5.88,31.06l-.09.09c-14.81,22.19-19.2,45.19-5.8,69.74,2,2.35,4,4.71,6,7.06a88.17,88.17,0,0,0,38.31,16.89c8.06,1.41,16.94,5.53,20.2-9,2.22-10,17.89-10.65,24.54-1.59,8.74,11.91,14.9,14.63,22.33-1.4,4.39-9.38,14.85-9.38,18.16-.36,4.66,12.49,12.9,10,21.6,9.73,7.24-18.7,8-18.79,23.63-2.13l7.79,1.5c2.9-1.45,6.88-2.18,8.42-4.53,3.36-4.94,4.71-12,13-9.69,7.2,2.08,7.56,8.78,8.79,14.72,6.34-.37,10.95,3.07,15.48,6.74,1-3.08,1.86-6.25,3-9.28,1.86-4.89,1.9-11,9.78-11.28,8.34-.31,9.74,5.57,12,11.14,5.88.18,11.77.41,17.61.59,2.63-5.34,2.9-12.77,11-13.45,7.56-.63,7.79,5.66,10.46,10.65,6.11,11.36,14,6.79,19.52-.68,3.85-5.26,6.34-10.83,14.08-8.83s5.84,8.55,6.57,13.85c7.79-1,16.26,0,22.46-6.56,3.12-12.68,14.58-10,16.66-3.85,8.15,23.91,24.37,12,38.31,11,7.25-6.25,16.94-9,23.28-16.71,16.84-20.56,18.56-46.73,1.45-66.93-9.06-10.64-11.78-21.28-13.54-34.64-7.2-54.2-36.36-95.28-80.83-125.93a201.72,201.72,0,0,0-49.68-25.5c-10.59-3.57-14-9-13.49-19.69.77-15.81-1.41-30.62-19.43-37.41-8-3-5.62-10.37-3.89-16.21,7.42-25.22,23.54-43.29,47.63-53.25,27.94-11.6,57.2-15.49,87.67-15.35,138.07.76,276.19-.73,414.25.72,128.11,1.27,222.66,61.59,287.19,170.9,27.4,46.51,39.08,96.86,39,150.7q-.4,289.5.27,579c0,10.46-.77,19.56-9.42,27.4-9.1,8.24-9.64,20.6-8.55,31.78,1.44,15.18-5.8,15.36-15.81,10.47-12-5.85-26.72-13.32-37.09-6.75-21.73,13.76-34.77,4.07-52-8.11-14.53-10.23-34.46-11.18-52-4.07-14.4,5.88-16.62.13-16.12-12.23.45-10.14-.27-20.38-.14-30.57.14-10.82-2-20.46,14.85-24.31,17.85-4.12,21.38-36.46,8.38-54.71-5-7.06-11.68-12.22-19.06-16.57-9.6-5.61-9.06-12-1.23-18.7a64.22,64.22,0,0,1,9.61-6.88c59.45-33.83,61.58-115.7,3.93-152.11-31.83-20.11-73-19.79-101.75.81-28.89,20.74-45,62.77-35.73,96.14,6.8,24.36,21.51,43.25,43.48,56.24,18.06,10.69,18.61,19.11,2,30.61-29.75,20.7-27.17,55.25,5.66,70.42,5.52,2.54,6.34,5.66,6.34,10.19-.09,68.47,2.58,137.12-1.5,205.36-2.62,44.1-14.94,87.62-23.27,131.37-8,41.43-10.51,82.86-1.63,124.48v.45c.68,1.36,1.31,2.72,2,4.08,14.13,30.11,33.24,56,62.36,73.4,39.62,16.53,79.65,21.42,119.95,2.9,54.61-25.13,81.56-69.65,86.22-128.11,4.44-55.56-3.8-110.49-11.5-165.33-3.22-22.86-6.52-45.82-7.61-68.78-.36-7.88-10.19-22.42,10.33-23.91,18.84-1.36,19.06,8.83,19,22.69-.5,66.2-.45,132.36-.41,198.56q.21,486.15.68,972.33c0,11.45.27,22.55-8.1,31.74-1.14,1.22-2.45,3-2.36,4.44,1.68,24.23-14.85,37.54-30.52,51.44-1.63,1.45-3.4,3.58-3.67,5.62-3.89,28-24.18,48.13-34.91,72.77-4.89,11.18-13.63,8.28-21.51,8.28-96.73-.13-193.45-.54-290.18-.72-17.52,0-35.09.63-52.62.54-6.33,0-15.66,2.22-16.48-7.15s-7.29-20.52,2.49-28.67c14.13-11.72,23.64-25.76,25.59-44.28.54-5,3.89-5.75,8.06-6.89,128.78-35.5,203.55-118.91,224.29-251.36,9.82-62.86,22.77-125.21,32.37-188.11,2.22-14.4,8.43-17.44,20-18.34,22.23-1.81,35.86-14.49,43.79-34.64,7.65-19.34,3.71-36.36-9.06-52.17-3.39-4.21-9.42-6.7-9.69-13.22-17.93-4.3-35.68-9.38-54.39-9q-261.3.33-522.61.59-442.93,0-885.79-.32c-6.79,0-13.58-.41-20.33-.64-4.85,0-9.69.05-14.49.05-5.07-.59-10.91,3.21-15.08-2.63l-.27.55c-6.39,5.48-14,2.44-21.1,2.9-19.16,1.22-38.45-1.77-57.47,2.62-37.49,8.7-54,53.48-31.7,84.95,14.54,20.56,36.09,22.46,58.1,23.91,6.43.46,14.67-2.08,16.3,7.7,6.34,38.31,16.44,75.94,20.74,114.57,10.24,42.65,18.16,86,31.16,127.88,32.06,103.33,98.9,173.07,204.77,202.46,8.42,2.35,15.12,4.35,17.07,15.26a50.31,50.31,0,0,0,21.42,33.33c15.17,10.55,0,22.46,0,33.74,0,9.1-9.29,6.15-14.9,6.2-113.12.18-226.24,3.53-339.36.36-5.48-.14-13,2.58-15.8-2.54-3.31-5.88,5-9,7.61-13.63,5.7-10,9.91-20.33,9.91-32,0-83.73.77-167.46-.31-251.14-.32-24.95-15.67-44.15-33.6-60.68-10.64-4.35-14.86-11.23-13.63-23.64,1.63-16.8.9-33.87.36-50.85-.64-18.93-11.28-28.76-30.07-28.85-22-.09-44.11-.27-66.16,0-18.16.27-29.3,11.5-29.39,29.57-.09,16.34-1.36,32.74,1.41,49,1.54,9.15-1.68,15.53-10.33,20.83-14.71,9.1-24.45,22.91-32.15,38.53-2.9,5.89.18,18.3-9.33,16.8-8.83-1.35-15.89-10.45-20.78-18.74-2-3.35-.68-8.74-.59-13.22.13-11.87,1.36-23.78.45-35.55-1.36-18.25-10.37-26.4-28.39-26.86-7-.18-13.31,1.45-13.09-9.55s6.48-11.28,14.49-11.05c13.54.36,27.13.27,40.71.32,5.3,0,11.19-.64,11.78-7,.63-6.65-4.62-11-10.51-11-23.86.14-47.23-1.22-70.46-7.92-23.46-6.8-45.19,9.55-68.74,7.74-8.42-.68-16.94-.23-25.4.09-7,.23-12.73,3-12,11,.73,7.47,7.11,7.66,13,7.57,15.85-.28,31.7-.5,47.5-.86,7.34-.19,13.32.09,13.63,10.18.28,9.33-3.57,10.74-12,11.19-20.24,1.13-29.38,10.87-30.34,31.15a268.57,268.57,0,0,0,.41,35.55c.91,10.6-2,17.8-10.91,24.41-22.33,16.75-32.2,40.89-32.56,67.83-.77,53.12.18,106.28.5,159.45.13,30.25-3.81,61.63,28.35,85.18H952.91l-140.79-.14c-7.06,0-14.58.5-14.67,9.92,0,9.1,7.25,10.28,14.4,10.73,2.81.18,5.66.18,8.47.13q338.8-.27,677.62-.58c17.25,0,34.55-.05,51.8-.05q41.64-.07,83.33-.09a3.2,3.2,0,0,1,1,.14l1144.76.63h12.41l980.3-.54a87.17,87.17,0,0,0,16.84-1.32C3798.52,3450.08,3802.09,3444.69,3795.48,3435.31ZM1218.86,2984.83c13.49-.27,27,.77,40.53,1.27,9.78-.9,22-5.25,27.21,5.66,5.75,12.09,5.48,26.36,1.68,39.58-1.81,6.29-8.24,4.71-13,4.71-18.53.09-37-.18-55.52-.32-14,2.81-21.15-1.81-21.51-17.11C1197.67,2996.06,1203.42,2985.15,1218.86,2984.83Zm-182.36,33.51c1.63-6.34-3.85-16.8,8.92-15.71,11.64.95,7.29,10.78,7.34,17s3.62,16.62-8.11,16.34C1031.38,3035.69,1038.72,3024.37,1036.5,3018.34Zm-36.09,35.23c3.35-7.69,13-7.15,21.19-6.29,11.73,1.22,23.51,2,35.23,3.08,3.94-.27,7.88-.68,11.82-.77,25.5-.54,24.77-.54,25.14,24.32.18,13.31-4,18.52-17.39,17.07-10.1-1.13-20.34-.82-30.48-1.18-3.21,0-6.38,0-9.6.09-1.31,0-2.63.05-3.94.09-4.44,0-8.87.05-13.31.09-6.48.36-16.3,4.26-18.52-2C996.7,3077.3,995.7,3064.35,1000.41,3053.57Zm137.3,375.4c.27-5.7,3.4-11.27,7.7-11.36,5.7-.05,7.38,6.34,9.33,11.95C1148.31,3429.79,1143.05,3431.55,1137.71,3429Zm147,1.86c-27.39.18-54.79,6.2-82.23.14-5.84-1.27-12.59,1.49-17.43-4-19.48-10.83-30.43-25.73-29.48-49.68,1.26-33.28-.27-66.7.13-100.08.14-10.73-2.89-15.89-14.13-14.22-6,4.85-3.26,11.6-3.3,17.44-.36,35.09-.09,70.14-.36,105.24-.23,30.74-15.31,45.82-45.38,45.55-14.13-.13-28.25-1-42.34-1.45-13.54.23-27.08.77-40.62.68-31.2-.18-54.2-21.73-54.74-53.39-1.14-63.8-2.13-127.65-1-191.41.41-19.52,6.71-39.53,25.32-52,8-5.29,15.48-11.27,23.18-17,1.09-8.33,7.48-5,11.87-5,14-.14,28.44,2.22,42.11,0,21.6-3.53,38.58,4.57,55.52,15.71,17.75,11.64,27.67,26.49,27,48.91-.36,13.45-4.66,27.85,3.44,40.8,9.42.31,14.09-2.67,13.54-13.63-1.17-22-.86-44-1.17-66.07-.46-30.7,13.31-51.53,42.38-63.58,2.81-1.18,5.62-1.9,5.35-5.21-1-12.13,8.19-7.42,13.81-8.56,20.33-.27,40.62-.58,61-.77,2.22,0,6.34.68,6.34,1.05.18,20.78,22.14,18.2,31.65,29.38,15.71,18.53,23.87,38,19.11,62.09,5.16,76,1,152.15,2,228.23C1336.82,3412.35,1317.12,3430.6,1284.74,3430.83Zm108.69-564.5c-6.12,0-12.5,1.36-18.21-2.22l-.09-.09c-18.93-3.13-30.25-14.67-29.84-30.48.45-18.07,15.85-34.68,34.82-34.91,53.71-.63,107.46-.41,161.17-.41q643.86-.27,1287.76-.41c17,0,33.92.64,50.9,1,16.3-.45,32.61-1.09,48.91-1.22,15.76-.09,27.12,8.33,33.69,21.64,6.38,13,4.57,26.27-5.89,37.41a1.16,1.16,0,0,1-1.67,1,4.37,4.37,0,0,1-2.18,2c-9.69,9.78-22.19,6.79-33.69,6.79q-292.82-.21-585.6-.82-205.41-.2-410.81-.18c-7.88,0-15.76-.68-23.69-1l-28.3.13c-5.61.32-11.23,1-16.8,1Q1623.65,2866,1393.43,2866.33Zm295.15,452.33c-3.35,7.25-7.15,7.66-12.86,6.16-22.91-5.93-45.69-12.23-65.57-25.81-72.09-41.8-117.37-103.74-135.49-184.67-11.82-52.89-25.13-105.55-32.24-159.39-3.85-18.21-7.61-36.37-11.59-54.52-1.4-6.53.72-9.74,7.56-9.56,3.4.09,6.79,0,10.19,0l1432.31.13c19.16,0,23.64,3.76,18.61,21.28-13.53,47.28-16.84,96.37-27.12,144.14-8.69,40.71-13.58,82.46-31.43,120.77-36.49,78.48-98.31,126.12-180.95,148.58-7.38,2-9.73-.18-12.36-6.52-11.55-28.08-33.42-43-63.26-42.52s-53.8,13.26-64.76,43.11c-3.89,10.73-12,8.55-19.47,8.6q-157,.34-314,.41c-116.51,0-233-.18-349.59.13-10.37,0-15.94-2.17-19.79-12.81-7.92-22-26.71-32.61-47.45-40.26C1729.79,3270.89,1704.88,3283.57,1688.58,3318.66Zm76.58,115.93a40.3,40.3,0,0,1-19.88,1.76c-2.49-1-5-2.53-7.57-2.85-5.79-.63-12.67,1.5-12.72-8.33,0-8,2.67-12.82,11.37-12.68,8.42-.45,16.84-.81,25.26-1.49s12.41,2.76,13.5,11.18S1771.9,3432.32,1765.16,3434.59Zm8.87-46.51c-27.76,11.59-53.84,1.81-68-25.45-14.31-31.83,4.71-65.3,39.26-69.1,25.81-5.12,49,8.2,57,32.79S1797.9,3378.17,1774,3388.08Zm768,29.66c-2.86,14.49-8.52,15.35-19.75,15.31q-177.28-.27-354.47-.09v.13q-142.52,0-285-.09c-24.27,0-48.59-.77-72.86-1.67-5.62-.23-14.58,3.08-15.81-5.21-1.45-9.87-9-21.33,1.86-30.16,12.77-10.32,21.64-22.73,25.49-38.76,2.5-10.46,11.23-7.79,18.07-7.79q115.34-.35,230.68-.27,209.47,0,418.91.09c14,0,27.22-.77,29.48,18.79.68,5.84,6.61,11.87,11.46,16.3C2540.27,3393.61,2545.16,3401.89,2542,3417.74Zm62.62,5.84c-.45,5.8-2.35,9.65-9,9.7-8.38,0-16.8,0-25.22.45s-13.86-1.09-13.68-11.55c.14-11.41,7.88-8.29,14.08-8.65,2.81-.13,5.62,0,8.43,0v.27c5.61,0,11.18-.13,16.8,0C2602.22,3414.08,2605.21,3417.15,2604.66,3423.58Zm-8.64-31.92c-26.18,6.43-53.53-9.78-61.73-36.54-4.39-37.41,9.74-57.74,42.93-61.77,31.79-2,52,13.45,56,42.84C2636.45,3360.6,2619.52,3385.91,2596,3391.66Zm546.29-81.1c-.4,11.14-9.6,7-15.53,7.24-6.7.36-13.49-.59-20.24-1-6.7-1.36-18,9.42-19.25-6.07-1.08-13.54,4.67-22.86,20.47-21.51-.27-1.54-.5-3.08-.77-4.66v-.05c-1.85-1.67-7.51,1.91-6.11-4.34a3.65,3.65,0,0,1,.77-2.95c-.72-10.14,1.49-20.42-1.81-30.38-1.77-.18-2.72-.95-2.13-2.9,4.8-245.21.86-490.46,2.08-735.72.28-50.31-.31-100.66-.54-151-2.94-18.16-2.49-36.32,0-54.47l-.54-54.07c-1.76-54.84-2-109.68,1.13-164.52,1.14-6.34-8.92-16.34,5.89-18.11,11.28-1.31,20.29.36,20.29,15,0,28.31.72,56.56.77,84.82q.2,495.24.27,990.48c0,37.86-1.36,75.72-1.72,113.57-.09,8.52-2.18,14.4-11.82,14.86,3.12,5.66,8.33,6.92,14.26,7.06C3140.14,3292.22,3142.72,3300.87,3142.31,3310.56ZM2382.05,1361.29c4.12,15.08-5,28.26-20.15,28.3-93.33.14-186.61-.18-279.9-.32l-88.66-.54c-20.74,1.5-29.48-3.71-31.06-18.52-1.68-16,12.81-34.28,29.16-35,14.49-.63,29.11.5,43.65.86q104.27-.4,208.48-.77c13,0,26,.18,39,.32,22.6-.09,45.24-.5,67.84-.05C2367.15,1335.93,2377.75,1345.49,2382.05,1361.29Zm-42.79-113.48c9.06,16.35,16.26,33.42,18.11,52.44,1.22,12.45-1.95,19-16.25,18.11-19.7-1.18-39.49-.72-59.28-1l-268.48-.55c-4.49.45-9,1.22-13.46,1.31-16.89.41-20.87-4.89-17.2-21.46,22.1-100.66,120.09-148.94,200.74-136.57C2238.46,1153.66,2309.05,1193.29,2339.26,1247.81Zm-125.44-117c.28,8.11-2.67,11-10.46,10.87-17.84-.32-35.68-.14-53.52-.18-5.89-2-17.12,9.42-17.39-6.39-.23-11.72-1.49-25.63,15.17-27.39,11.68-1.22,23.68.31,35.55.63C2208.16,1108.43,2213.19,1112.41,2213.82,1130.84ZM3053.88,1160C2995.1,1064.68,2910.74,1008.4,2800,991.6c-6.16-.91-12.28-2-18.43-2.9q-221.58,0-443.24.09c-10.68,0-21.42.31-32.1.5-29.75,2.31-54.89,14.85-79.16,31.83-21,14.72-32.83,33.56-37.36,57.87-2.12,11.6-6.65,18.16-19.38,11.64-18.47,5.16-19,5-14.17-13,16-59.55,59.05-91.29,114.79-108.59,24.77-7.7,50.63-10.41,76.76-10.41,133.9.09,267.85-.28,401.8-.19,78,0,147,25.86,212.15,68.43,60.14,39.26,103.61,90.56,132.5,155.41l-.41-.14c1.18,2.36,2.35,4.76,3.58,7.16,5.7,8.06,8.78,17.12,10.46,26.76,8,19.79,13.86,40.17,13,61.63-.41,9.19,3.62,17.34,3.44,26.27,4.12,26.4,2.4,53,2.45,79.51q.67,262.88.31,525.74c0,4.53-.54,9-.81,13.54-.64.82-1.27,1.59-1.9,2.4-3.94.77-7.93,1.5-11.87,2.27l-1,.72c-.86,1.77-2.17,2.18-3.85,1.18-12.45.18-7.24-9.55-7.29-14.72-.41-87.49-.41-175-.45-262.51,0-114.06.23-228.09-.05-342.16,0-15.08-2.44-30.16-3.76-45.23C3085.89,1228.25,3074,1192.61,3053.88,1160Zm33.91,788.42c7.07-9.91,18.75-6.43,29.08-5,27.71-1.31,32.83,3.08,31.51,25.72-.36,6.61-1.81,11-9.51,10.55-17.34-1-34.78,2.22-52.07-1C3079,1968.4,3081.45,1957.31,3087.79,1948.43ZM3003,2209.18c3.44,25.13,6.56,50.35,6.16,71.77,1.76,27.44,0,50.4-9.79,72.09-15,33.33-42.29,49.09-77.38,45.15-27.63-3.08-51.72-28.26-59.24-60.09-6.74-28.58.19-56.24,4.4-83.91,8.6-56.2,25.76-111,25.17-168.59,0-8.2,2.77-11,11.42-7.61,24.72,9.74,47.63,7.24,67.15-12.32,3.85-3.85,8.79-6.25,13.63-4.66,5.53,1.81,3.31,7.61,3.53,11.91C2990.84,2118.56,2996.82,2163.89,3003,2209.18Zm-67.25-235.89c11,1,22.51,3.17,25.36,17.12,4.26,2.63,1.13,10.24,7.65,11.37a48.13,48.13,0,0,1,6.48-1.27c17.43-1.13,18.38.14,12.81,16.53.37,4.48,1.14,9,1,13.45-.1,5.2,5.07,13.76-6.57,12.9-7.11-.54-15.53-.22-14.27-11.59.59-5,.73-10,1.05-15-.09-1-.19-2.08-.28-3.08-9.69,9.51-8,23.73-14.3,34.6-4.62,12.5-13.54,19-26.95,17.66-18.7-1.9-34.28-9.46-43.15-27.17-2.49-4.94-4.35-10.28-3.58-16.08C2878.72,1995.35,2909.15,1970.85,2935.73,1973.29Zm-113.89-193c-34.64-19.84-46.23-63.9-26.17-99.54,18.07-32.06,63.58-46,95.37-28.93,3.76,2,6.52,5.93,9.73,9a3.25,3.25,0,0,1,3,.55c3.58,3.17,7.11,6.34,10.64,9.46,11.23,8.56,15.44,20.51,16.49,34,6.74,29.89-5.08,59.14-30.75,76.12C2875.23,1797.37,2846.25,1797.14,2821.84,1780.3Zm27.58,20c27.72,1.41,27.72,1.41,25.45,27.4-7.56,5.66-16.26,2.08-24.41,3-5.16.59-7.42-2.58-6.56-7.2C2845.26,1815.66,2836.52,1805.34,2849.42,1800.31Zm-20.69,77.89c-10.46.86-14.13-5.53-14.45-14.4-.32-9.87.95-19.74,12.68-22.73a102.23,102.23,0,0,1,49.77,0c12-1.36,24.5-3.8,27.67,13.22,4.3,20.65,1.85,24.09-18.16,24.73-7.79.22-15.58-.09-23.32-.14C2851.5,1879,2840.05,1883,2828.73,1878.2Zm226.32,377.89c2.81,32.24,3.13,64.3-5.57,95.95-25.72,93.06-132.72,124.76-200.42,58.33-30.88-30.3-36.09-70.24-34.37-111.49,2.17-50.94,16.44-99.89,25.81-149.57,7.83-41.75,5-83.37,6.29-125.07,1.14-39,1.18-78.07.5-117.06-.18-9.19,2.86-11.14,10.15-10.41,6.34.58,16.16-4.44,16.12,8.28,0,33.1,6.25,66.61-7.7,98.81-5.34,12.27-5.66,26.13.54,38,14.95,28.71,8.65,58.91,4.89,87.67-7.11,54-21.23,107-27.8,161.12-4.8,39.3.81,75.89,31.7,104.24,47.54,43.61,128.1,16.62,147.08-49.41,10.73-37.27,6.25-75,1.85-112.71-7.56-64.43-18.43-128.56-18.34-193.72,0-5.07.59-10.1.91-15.17-1.86-13.9-8.65-29.34,11.32-36.5,15.08-2.31,12.95,9.69,13.72,17.71,2.22,23,1.36,46.23,2.54,69.37C3037.44,2135.54,3049.75,2195.41,3055.05,2256.09Zm23.82-210.25c-9-1.36-21.55,5.48-26.26-5.25-5.12-11.64-4.49-25.45-2.54-38.4.59-3.94,4.35-4.67,8-4.31q29.26.07,58.5.09c14.13-.4,28.26-1.4,42.34-1,16.17.5,22.87,8.33,23.6,24.81.67,15.76-6.48,25.45-22.33,25.68-23.14.31-46.28-.91-69.46-1.45C3086.8,2045.93,3082.77,2046.43,3078.87,2045.84ZM3093,3335.15c7.15-.59,14.49.27,21.73.45,5.48.23,11,.41,16.44.59,37.31,2.71,54,18.65,50.94,48.27-.68,6.48-2.17,11.05-9.69,10.91-37.18-.63-74.44,2.72-111.58-1.94-9.6,1.35-12.68-3.4-12.59-12.41C3048.4,3357.11,3067.28,3337.27,3093,3335.15Zm104.37,95.95c-45.14-.18-90.25-.77-135.35-1.27-7.74.73-15.49,1.54-23.27,2.09-7.07.49-14.77-.5-15.22-8.92s5.93-12.82,14.22-13.05,16.62.19,24.95.37q66.84-.56,133.77-1c8.92-.09,16.3,2.81,16.84,12.68C3213.91,3434,3203.9,3431.15,3197.33,3431.1Zm103.2-376.26c1-12.27,0-24.77-.4-37.18-.41-14.31,6.2-22.23,20.51-23.59a95.43,95.43,0,0,1,10.1-.81q134.49.4,269,1c3.9,0,7.84.77,11.73,1.22,20-.68,40-1.95,60-1.67,10.28.13,22,1,23.41,15.62.09,21.28.36,42.61.18,63.89-.13,11.64-7.15,17.39-18.34,17.53-30.29.5-60.59,1.85-90.84-1-31.56,3.8-63.26,1.49-94.91,1.72-45.19.31-90.39-.46-135.62-.73-4.44.64-8.88,1.68-13.36,1.9C3315.3,3094,3297.55,3092.25,3300.53,3054.84Zm346,355.16c-3.66,13.09-11.77,22.1-26.49,21.92-28.25-.32-56.56-1-84.81-1.63-49.9,2.71-99.85,1.26-149.8-.09-30.93,5.07-37.68-12.82-39.85-34.69-8.29-84.41-16.26-168.86-24.41-253.27-.45-5-2-10-2.44-15-.45-6.07-3.4-14,1.9-17.61,5.84-4,14-3.63,20.15,2.12l35-.68c9.87-3.21,20.1-2.67,30.29-2.67q123.9-.06,247.84,0c23.41,0,25.26,2.31,22.82,25.4-9,84.27-17.66,168.55-26.54,252.82C3649.35,3394.42,3648.67,3402.44,3646.54,3410ZM2699.4,3515.65s0,0,0,.09a1.83,1.83,0,0,0,.41-.18Z"/> <path class="cls-3" transform="translate(-1.68 1.38)" d="M1478,2777.92c14.54-33.65,42.6-48.48,76.76-53.33,9.43-1.34,13-3.76,15.34-13.31,13.25-55.26,56.63-86.66,113.75-81.65,12.52,1.1,16-2.05,16.08-13.48.14-28.64,15.92-51.17,29.81-74.39,27.69-21.31,57.86-35,94-31.1,9.8,1.05,10.33-6.93,11.43-13.5,7.62-45.6,15-91.23,22.63-136.83q23.3-139.2,46.77-278.38c18.44-109.51,36.47-219.08,55.49-328.48,16.7-96.07,34.47-192,52-287.89,1.33-7.29,2.4-14.46,1.73-21.84,8.47-17.14,12.5-18.46,21.91-7.17-2.56,14.44-5.16,28.88-7.68,43.33q-28.79,165.11-57.55,330.21c-12.43,71.15-25.31,142.22-37.44,213.42q-25.47,149.35-50,298.86c-10.14,61.81-19.34,123.77-29.17,185.63-1,6-2.07,10.92,5,14,21.22,9.19,37.87,24.06,50.78,44.07,13.1-26.69,12.06-45.31-2.48-59.87-15.55-15.57-15.37-21.77,3.1-35.35,7.2-5.3,11.6-10.25,12.78-19.85,4.11-33.59,9.78-67,14.49-100.48q16.5-117.34,32.62-234.73c7.73-56.42,14.91-112.91,22.73-169.32,7.91-57,16.66-113.85,24.41-170.85,10-73.25,19.13-146.62,29-219.89,5.17-38.52,13.5-76.63,14.42-115.68,1.18-6.62,4.39-12.23,11.46-12.55,8.3-.37,9.08,6.78,10.16,13-5.56,8.15-2.92,17.61-4.12,26.44-11.33,83.28-23.07,166.52-33.38,249.93-10.46,84.54-24.42,168.56-35.54,253-10.22,77.66-21.78,155.19-32.52,232.81-9.74,70.45-20.08,140.82-29.4,211.32-3.12,23.6-14.19,49.52,14.37,67.06,6.52,4,4.81,10.66-.23,16.07-4.24,4.55-8.47,9.14-12.31,14-19.94,25.37-19.42,55.13-17.79,85,.47,8.53,5.31,10.6,12.7,6.51,12.54-6.93,26.31-10.36,40.1-13.25,8.88-1.86,12.08-6.65,12.78-15.07,2.09-25.3,4.68-50.56,6.91-75.85,4.79-54.54,9.31-109.11,14.24-163.63q9.75-107.91,20-215.77c4.82-50,10.25-100,15.42-150,4.89-47.14,10-94.25,14.65-141.41,5.06-51.1,9.65-102.25,14.61-153.36q10.89-112.08,22-224.12a16.59,16.59,0,0,0,1-3.14c11.26-2.17,9.63,11.23,16.86,13.93q.43,13.37.86,26.72c-10.45,64.09-14.94,128.85-21.14,193.41-3,30.87-5.41,61.8-8.68,92.64-5.94,56.1-12.58,112.13-18.42,168.24-5.27,50.52-9.78,101.11-14.77,151.66-6.31,64-12.94,127.92-19.09,191.91-4.43,46.08-8.16,92.23-12.45,138.32q-7,75-14.47,150c-.89,9,1.91,14.13,11.73,14.13,14.91,0,29.17,3.66,43,8.81,8.41,3.13,11.78,2,12.56-8.09,8.33-107.62,10.15-215.57,16.74-323.29,4.41-72.15,6.94-144.43,11-216.61,5.08-89.63,10.75-179.23,16.51-268.82,2.53-39.42,6.46-78.75,8.73-118.18,3-52.42,9-104.71,7.78-157.34l4.76-76.54h11.85c4.3,5.32,3.39,11.72,3.52,17.83.46,23.08.79,46.16,1.17,69.25-2.41,35.49-4.88,71-7.22,106.47-3.63,55.2-6.09,110.5-11,165.58-7,78.2-10.25,156.61-15.38,234.92-3.36,51.28-4.09,102.75-8.17,154-5.84,73.23-9.19,146.57-11.91,219.91-2.22,59.83-6,119.49-10.35,179.17-.9,12.21-2.89,25,3,39.74,3.11-5.81,5-9.14,6.7-12.56,12.16-24.45,26.12-47.95,47.31-65.45,12.26-10.13,16.32-21.41,16.41-36.56.4-72.37,0-144.74,2.45-217.11,3-88.72.6-177.52,3.08-266.3,2.65-94.93,1.55-189.94,4.12-284.91,1.9-70.05,5.95-140.1,3.86-210.24q.3-15,.58-30.09l17.11-3.83c.5,29.34-2.89,58.79,2.66,88-2.75,5.85-2.46,12.13-2.47,18.33-.11,89.33-2.93,178.59-5.76,267.87-2.87,91-.36,182.07-3.52,273.1-2.58,74.57-.66,149.24-3.48,223.87-1.88,50.12-.35,100.36-.35,151.17,16.62-5.49,32.32-12.2,48.71-15.56,11.54-2.37,14.64-6.94,14.23-17.93-1.27-34.46-1.82-69-2.44-103.43-1.59-87.06-2.72-174.13-4.66-261.19-2.86-128.26-6.27-256.51-9.43-384.77q-1.93-78.83-3.78-157.63c-5.26-28.15-.83-56.68-3.44-84.94,6.62-3,11.15,4.32,17.32,3.54,1.86,45.28,2.53,90.63,7.72,135.73-1.73,76.36,3.85,152.54,5.58,228.81q4.28,189.09,7.4,378.2,2.18,121.29,3.33,242.6c.11,11.66,3.67,16.77,15.5,15.94,12.51-.89,24.89.89,36.94,4.05,8.65,2.27,12.77.69,12.33-9.19-.79-17.51-.5-35.07-1.44-52.57q-6-112.53-12.55-225-3.66-64.3-7.72-128.57c-4-63.14-8.4-126.26-12.41-189.4-3.69-58-5.9-116.23-11.31-174.11-1.66-17.75,1.36-36.27-5.63-53.5-.2-11.24.18-22.52-.68-33.7-5-65.42-10.27-130.82-15.45-196.22l15.71-.22c3.54,37,8.19,73.9,10.43,111.08,2.95,48.91,8.11,97.7,12.32,146.54a6,6,0,0,0,1.42,6.58,9.55,9.55,0,0,0,.26,3.15c2,46.84,6.3,93.52,9.62,140.27q11.42,160.58,20.45,321.32c5.57,101,9.86,202.09,13.89,303.17,1,24.38,2.4,46.93,29.57,57.15,2.46.93,4.15,3.76,6.37,5.5,18.19,14.33,29.63,33.86,40.65,53.86-28.05-279.07-47.58-558.43-77.52-836.83,2.94-5.64,6.27-7.37,7.95.36,1.37,6.24,1.37,12.65,10.38,11.69q1.85,9.14,3.71,18.26c3.49,34.77,7.1,69.52,10.43,104.31,6.57,68.46,13.19,136.93,19.4,205.43,4.18,46.07,7.35,92.23,11.56,138.3,6.07,66.27,12.83,132.47,19,198.73,4.35,46.58,8.82,93.17,12,139.84,1.06,15.92,7.37,19.72,22.11,18.1,50-5.52,92.94,8.18,124.48,49.4,5.8,7.58,9.64,6.69,15.75.52,18.94-19.13,42.56-28.73,68.78-33.64,49.72-9.3,105.69,31.17,110,81.16,1.35,15.74,6.56,21.74,23.44,22.63,41.24,2.19,85.13,40.76,95.1,80.46q-261.32.29-522.63.55-442.89,0-885.78-.31C1491.6,2778.55,1484.82,2778.14,1478,2777.92Zm1103.58-27.25c14.48-.31,21.29-8.73,21.7-21.45.38-12.06-6.6-18.41-19.28-18.27-13,.14-21,7.08-21.62,19.07S2568.86,2750.08,2581.62,2750.67Zm-937.33-39.8c-8.89-.69-16.14,1.51-16.81,13-.71,12.21,6.47,18.27,17,18.64,10.22.37,16.9-7,17.18-17S1655,2710.62,1644.29,2710.87ZM2711.2,2697c-1.5-9.05-6.53-13.36-15.23-13.05-9.85.35-12,7.34-11.88,15.2.15,7.68,4.36,13.41,12.43,13.19C2706,2712.06,2709.67,2705,2711.2,2697Zm-917.47-62.88c-8.43,1.69-15.22,6-14.87,15.15.26,6.9,4.62,13.44,12.81,12.37,8.58-1.12,14.12-7.26,14-16.07C1805.58,2638.79,1801.12,2634.43,1793.73,2634.1Z"/> <path class="cls-2" transform="translate(-1.68 1.38)" d="M863,1760l-6.94-.35c-18.28-4.62-30.56-18.86-30.52-35.38,0-15.49,14.4-30.51,32.87-33,11.66-1.56,16.81-3.37,10-17.14-9.71-19.7-6.12-39.81,7-57.39,5.28-7.06,5.71-12.17,0-19.17-16.5-20.13-16.69-43-6.15-65.14,9.69-20.36,28.15-28,50.49-26.29,1.5.11,3.12-1.16,4.68-1.79,7.47,10.71,12,19.89-8.38,16.92-2.16-.32-4.52.28-6.72.76-19.29,4.27-31.1,20.74-29.81,41.47,1.1,17.78,14.13,33,29.88,33q157,.39,314.06,0c5.79,0,12.78,1.77,16.71-5.16,13.48-11.37,20-29.1,14-43.4-5.5-13.09-13.77-24.75-30.17-25.47-10.13-.44-20.3-.13-30.45-.15q-111-.14-222.09-.26c-9.32,0-19,.6-24.22-14.38h237.09c6.72,2,13.32,2.58,19.49-1.71l7.51-1.14c4.42.82,8.83,2.26,13.27,2.36,29.63.73,42.36,19.84,49.65,45.06-.25,18.38-1.82,36.25-17.78,49-4.69,3.74-1.38,6.64,1.31,9.71,18.11,20.66,18.47,43.71,9.2,68.13-1.31,3.43-5.22,9.44-1.4,10.51,13.09,3.66,26.83,1.62,40.32,1.39,3.5-.06,4.49-2.72,3.86-5.95a21.29,21.29,0,0,1-.69-3.3c-1.12-40-9.75-80.95,13.35-118.26,10-3.89,16.57-13.31,27.25-16.38,6.15-1.78,5.11-8,5.14-13,.08-13-.5-26,.21-39,.91-16.82,8.89-24,25.85-24.25,15.81-.21,31.64-.25,47.46.09,19.11.41,26.2,7.6,27.28,26.84a23.31,23.31,0,0,1,0,5.08c-4.08,24.33.32,43.75,24,58,20.07,12,19.49,35.54,21.19,56.18,1.2,14.61.52,29.36.68,44a15.89,15.89,0,0,0-.47,1.63c-1.63,8.83-7.3,20.1-3.82,25.86,4.28,7.1,16.55.75,25.37,1.71,18.11,2,32.25,15.56,33,32.78.77,18-10.94,31.86-30.06,34.81-6.66,1-13.51,1-20.28,1q-311.18.38-622.36.66c-5.64,0-11.28.35-16.92.54A5.69,5.69,0,0,0,863,1760Zm519.66-69.23,1.36.38,1.36-.38,10.72-.09c17.48.29,35,.76,52.45.82,23.92.07,32.12-8.67,32.67-34.22,4.12-11.56.36-22.92-.82-34.34,3.23-44.26-15.73-65-59.82-65-11.74,0-23.49.68-35.23,1-26.52-6-59.94,16.36-60.9,41.65-.81,21.46-.59,43,.17,64.46.46,12.77,5.78,23,20.63,24.17C1357.55,1694.18,1370.21,1690.16,1382.67,1690.81Zm14.42-202.49c-24.94-1.32-24.94-1.32-25.16,23.66,0,2.26.33,4.57,0,6.77-2.68,16.2,3.19,23.18,19.89,18.76,4.42.64,8.82,1.64,13.25,1.86,32.85,1.66,33.18,1.6,32-31.27-.24-6.64,4.82-16.39-6.91-19.41ZM865.67,1708.41c-12.67-1.49-22.2,4.78-22.2,16.5,0,13.18,11.06,16.2,23,14,36.18.26,72.36.77,108.53.75q230.77-.17,461.55-.58c27.56.23,55.12.38,82.69.72,11.18.13,17-5.71,17.29-16.29.32-10.19-5.24-15.37-15.77-15.24-32.61.41-65.22.64-97.84.94-7.32-.35-14.64-1-22-1-121.44-.51-242.88-1.17-364.33-1.29C979.64,1706.89,922.65,1707.89,865.67,1708.41Zm377.69-27.18c13.94-14,16.74-33.13,7.31-50-8.67-15.49-19.37-19.3-41.36-14.73l-7.72-1.39-.61-.69-.83.4c-5.63-.32-11.25-.93-16.87-.92q-132.16.11-264.32.38c-24.19,0-38.47,13.68-38.78,36.73-.31,22.11,16.4,39.64,39,39.72,98.84.37,197.69.37,296.53.7C1226.42,1691.46,1235.77,1689,1243.36,1681.23Z"/> <path class="cls-2" transform="translate(-1.68 1.38)" d="m3704.9 1630.8c-0.58 23.73-0.64 47.5-1.93 71.2-0.79 14.55 9.54 9.74 16.1 10 16.58 0.67 27.78 8.79 34.53 23.25 6.16 13.19 2.89 25.39-5.79 36.43s-21.31 11.74-33.88 11.76q-130.7 0.24-261.37 0.31c-63.36 0-126.72-0.25-190.08-0.24-17.27 0-29.34-7.56-35.32-23.75-5.51-14.91-1.26-27.65 10-38.49a27.89 27.89 0 0 1 19.85-8.23c14.65 0.16 17.62-7.5 17-20.44-0.85-19.2-0.16-38.46-0.1-57.69 0-11.48 1.75-22.87 7.77-32.62 8.65-14 19.62-25.61 21.78-44.06 1.74-14.85 17.68-14.81 30.71-12.72 12.47 2 21.84 8 21.38 21.81-0.31 9.24 2.39 15.3 9 22a60.12 60.12 0 0 1 17.87 44.42c-0.31 22 0.64 44.12 0.28 66.18-0.16 9.38 2.42 13.27 12.44 12.73 9.22-0.51 14.5-1.7 13.78-13.29-1.4-22.56-0.8-45.24-1.57-67.85-0.86-25.23 7.87-47.13 25.35-64.31 10.05-9.88 13.71-19.81 12.61-33a78.81 78.81 0 0 1 0.51-18.61c1.76-11.27 4.33-20-13.84-14.68-16 4.69-20.32-11-25.43-21.91-5.26-11.19 6-12.46 11.83-16.79 2.67-2 5.55-3.73 8.34-5.58 20.14-9.16 41.47-12.25 63.39-12.39 10.71-0.07 19.53 3.18 24.36 13.61 0.62 14-4.25 33.32 3.06 41 13 13.55 11.78 27 11.4 41.74-0.21 8 2 14.11 7.68 19.63 24.75 24 34.68 53.28 32 87.61-1.27 16.31 0.28 32.81-0.29 49.2-0.35 10 1 16.15 13.41 15.4 11.16-0.68 19.77-0.73 18.74-16.23-1.43-21.41-0.15-43-1.26-64.45-0.8-15.61 3.15-29 13.12-40.79 3.65-4.31 8.23-8.47 4.66-14.89-5.53-10-3-19.68 0.47-29.44 12.16-13.78 28.26-13.11 43.93-10.53a21.38 21.38 0 0 1 13.84 34.07c-4.21 5.57-2.48 7.72 2.21 10 21.2 10.37 26.23 29.46 27.46 50.63zm-230.18-152.06c1.77 5.27 3.7 10.5 5.28 15.84 2 6.77 6.6 5.88 10.06 2.48 8.51-8.36 8-20 6.44-30.06-1.61-10.4-11.37-5.45-18.06-5.48-13.24 2-26.53 3.74-39.69 6.16-6 1.1-13.53 3.07-11.32 11.32 2 7.38 8.41 4.72 14.08 3.47 10.9-2.43 21.83-5.33 33.21-3.73zm-0.39 73.28c6.67 0 13.41-0.7 20 0.06 13.18 1.51 18-3.92 17.86-17-0.21-20.65 0.3-20.7-23.83-19.17-4.91-0.6-9.82-1.53-14.75-1.73-9.73-0.41-15 4.38-12.73 14.14 2.04 9.05-6.36 24.63 13.45 23.72zm210.06 131.67c0.79-17.35 2.35-34.71 2.19-52.05-0.28-31-12.1-40.66-43.33-36.92-22.88 4-30.06 12.59-29.27 35 0.25 7.34 0.34 14.69 0.51 22-1.84 4.19-1.94 8.32 0.46 12.36l1.86 21.12c-2.23 27.9-2.23 27.89 25.66 27.52 8.38-0.11 16.82-0.77 25.14-0.07 13.06 1.11 18.83-4 17.28-17.22-0.46-3.89-0.35-7.83-0.5-11.74zm-428 79.81 0.49 1.12c3.88 0.53 7.76 1.52 11.64 1.52q155.19 0 310.37-0.15c46.36 0 92.72-0.21 139.08-0.2 12.28 0 19.83-5.74 19.77-18-0.06-12.13-8-15.58-19.48-15.44-49.74 0.58-99.47 0.59-149.21 0.8-7.35-0.21-14.69-0.52-22-0.63-31.5-0.43-63.3 4-94.28 2.37-56.43-3-112.71-1.11-169-1.83-6.69-0.61-13.36-1.38-20.06-1.78-9.65-0.56-18.7 1.64-21.26 12.09-2.7 10.86 2.4 18.2 13.99 20.13zm54.79-51.81h6.89l29.81-0.37c6.51-0.31 16.87 5.21 16.94-6.73 0.18-29.15 3.68-58.5-3.11-87.42-7.88-18.28-25-26.22-47-21.73-13.28 2.72-24.89 19.79-24.65 36.26 0.31 20.81 1.7 41.68 0.6 62.41-0.81 16.63 5.56 21.27 20.57 17.58zm174.55-144.65c-30.37-7.25-64.79 23.5-61.82 57.19 2 23.15 1.41 46.23 2.08 69.32 0.41 14.34 5.49 21.21 20.38 18.4 30.27 0 60.56-0.32 90.83 0 10.17 0.12 14.09-3.71 13.67-13.84-0.87-20.69 1.28-41.49-2.07-62.09 3.53-45.09-21.79-72.81-63.07-68.98zm159.38-16.64c-7.4 1.41-15.52 2.92-14.18 12.83 0.88 6.48 0.89 16 11.86 14.72 8.46-1 17.5-2.43 18.14-13.74 0.62-10.94-8-11.92-15.82-13.79zm-318.19 28.68c4.7-2 13.06 0.35 12.39-9.38-0.46-6.68-4.72-10.24-11-10.25-7.78 0-12.74 4.63-12.82 12.42-0.04 7 5.98 6.85 11.43 7.23z"/> <path class="cls-2" transform="translate(-1.68 1.38)" d="M1019.13,1936.27c11.63-6.89,24.5-8.22,37.62-8.25q109.49-.18,219-.29c6.84,0,14.13-.08,19.63,4.15,25.88,19.94,55.52,8.39,83.49,10.35,7.85.55,10.92-7.19,15.12-12.32,24.11-29.49,61.82-36.2,90.56-16,27.32,19.19,35.86,61.51,18.43,91.38-17.28,29.62-57.64,41.79-89.12,27-9.46-4.44-18.22-10.34-22.87-19.5-5.67-11.17-14.3-12.74-25.13-12.4-12.44.41-25,.69-37.32-.43-13-1.17-17.52,2.65-17.45,16.53.51,97.88-.75,195.79.43,293.66.61,50.21-22.5,62.78-63.4,63.34-56,.77-112,.27-168,.36-3.38,0-6.76.49-10.13.75-7.82-.91-15.73-1.35-23.44-2.82-22.54-4.3-37.25-22.58-37.48-47.18-.5-52.4-.59-104.8-.85-157.2q.18-77.22.27-154.43c0-4.23,1-9.08-4.25-11.88-8.6-4.57-32.53.49-37.9,8.93-13,20.56-31.43,29.56-55.74,28.72-11.47-.39-22.38-2.57-33.37-5.1-44.27-29.48-51.31-79.33-15.95-113,30.33-28.93,74.66-23.21,104.7,13.51C977.47,1948.22,1005.61,1949.38,1019.13,1936.27Zm444.55,47.28,0,.14c-15.15,25.28-40.06,12.2-63.14,14.69,8.38,11.28,16.43,19,29.17,20.28,20.1,7.08,37.51.46,50.56-14,12.78-14.15,19.1-31.75,11-51.38-4.47-18-16.12-28.57-34.07-32.46-19.39-4.3-35.49.89-47.92,16.63-2.15,2.73-4.13,5.8-2.7,9.25,1.83,4.39,5.77,2.55,8.62,1.55,9.35-3.28,19-1.54,28.47-2.2,7.42,4.08,14.42,8.6,17.92,16.85A34.83,34.83,0,0,1,1463.68,1983.55Zm-555-13.78c-1.73,1.54-1.57,3.14-.15,4.77a6.76,6.76,0,0,0,1.15,2.44c.87,4.78,4.16,6.31,8.55,6.35q40.6.33,81.22.66c4.86,0,9.31-.58,8.34-7.3,5.88-16.82,4-20-12.7-19.71-24.87.5-49.73,1.76-74.6,2.18C912.75,1959.29,908.92,1962.16,908.64,1969.77Zm405.88-.14c-2.94,10.58,1.52,14.23,12,14.08,34.4-.49,68.82-.51,103.22-.68,15.61-.08,16.25-8.1,10.5-19.58-2.53-5.59-7.6-6.06-12.7-6.08-35.25-.17-70.5,0-105.75-.49C1310.34,1956.73,1311.64,1962.38,1314.52,1969.63ZM866,1993.77l.18,3.63c14.22,23.84,48.11,32.21,70,17.11,4.4-3,11.43-6.21,9-12.33-2-5-9.14-3-13.79-2.09-32.81,6.25-40.31-5.59-45-34,5.09-12.22,15.53-17.11,27.42-20,8.32.21,16.63.63,24.94.53,3,0,7.52,1.56,8.51-2.7s-2.95-6.65-6.25-8.73c-21.28-24.34-61.95-19-78.61,10.26-10,17.61-8.62,35.53,3.81,48.84Zm426.89,227,.48-256.5c.85-18.62-12.5-18.74-25.16-18.73q-107.57.11-215.13.65c-23.59.1-28.43,5.43-28.21,29.14q1,101.63,1.63,203.26c.27,47.29-.2,94.59.29,141.89.21,20.29,7.69,28.87,26.16,33.45,59.81.4,119.63,1.29,179.44,1.07,57.95-.21,64-7.3,60-65.51,5.24-6.44,8.91-12.94.71-19.86Q1293,2245.2,1292.89,2220.77Z"/> <path class="cls-3" transform="translate(-1.68 1.38)" d="M1211.38,1505l-7.52,1.14c-6.8-2.89-13.39-3.41-19.48,1.71H947.29c5.18,15,14.9,14.37,24.22,14.38q111,.15,222.07.26c2,4.27,6.73,3.32,9.91,5.14,10.82,6.18,25.81,11.48,28.2,23.14,2.78,13.5,7.62,26.8,8.5,40.74-3.93,6.93-10.92,5.15-16.71,5.16q-157,.25-314.06,0c-15.75,0-28.78-15.27-29.88-33-1.29-20.73,10.52-37.2,29.81-41.47,2.2-.48,4.56-1.08,6.72-.76,20.37,3,15.85-6.21,8.38-16.92,5.86-28.93,13.76-35.84,43.47-35.45,68.1.9,136.24-2.72,204.29,1.62C1195,1472,1205.86,1482.27,1211.38,1505Z"/> <path class="cls-3" transform="translate(-1.68 1.38)" d="m984.45 2821.3c0.2 20.07-10.7 31.13-31.21 31.69-20.07 0.54-35.33-13.58-35.36-32.72s13.48-31.93 33.86-31.78c19.99 0.15 32.51 12.7 32.71 32.81z"/> <path class="cls-3" transform="translate(-1.68 1.38)" d="m1222.1 2711.6c-0.35 13.43-10.84 23.53-24.18 22.35-14.13-1.25-20.52-10.86-21.62-23.77-1-11.56 11-22.64 22.69-22.28 13.84 0.42 23.46 10.29 23.11 23.7z"/> <path class="cls-3" transform="translate(-1.68 1.38)" d="m1159.9 2839.2c-8.55-0.82-13.66-5.79-14-13.94-0.34-8.56 3.91-16.15 13-16.66 8.86-0.51 14.56 5.88 15.08 14.76 0.53 9.28-5.35 14.09-14.08 15.84z"/> <path class="cls-3" transform="translate(-1.68 1.38)" d="m1029.9 2709.6c-8.59-1.36-13.5-6.17-13.88-14.4-0.39-8.44 4.08-14.18 12.71-14.33 8.45-0.16 13.42 5.07 13.71 13.57s-5.12 12.9-12.54 15.16z"/> <path class="cls-4" transform="translate(-1.68 1.38)" d="m3515.7 2914.2c-0.21-31.61 0.91-63.3-1.24-94.77-0.92-13.31 18-23.08 12.11-26-12.56-6.3-11.05-14.37-11.13-23.63-0.22-26 0-51.92-0.24-77.88-0.06-6.39 1.49-15.06-8.78-15-10.65 0-8.16 8.88-8.25 15.13-0.31 20.32 1.39 40.8-0.59 60.93-5.3 53.74 5.25 107.58-1.9 161.22-20.73 1.38-26.67-14.14-37.1-28.07-16.91-22.58-17.39-49.26-25.39-73.82-13.69-42-4.39-86.11-6.92-129.22 13.45-15.84 21.55-34.35 27-54.18 16.72-3.55 29.64-16.47 47.57-18.12 7.95-0.74 14.51-1.29 22.48 1.21 49.08 15.38 61.55 52.38 62.82 98.72 1.31 47.63-4 94.22-18 139.38-6.37 20.55-15.95 40.84-32.89 56.18-5.79 5.19-11.71 8.46-19.55 7.92zm-57.13-200.24c-2.66-5.87-4.12-14.63-13.15-14.67-7.66 0-14.61 4.73-14.61 13.39 0 8.91 5.46 15.24 14.78 15.35 7.86 0.1 12-5.31 12.98-14.07z"/> <path class="cls-4" transform="translate(-1.68 1.38)" d="m3645.8 2925.2q38.57-69.45 77.12-138.91c2.46-4.43 5.06-8.82 7.11-13.45 3-6.81 6.41-15.13-1.93-19.46-9.2-4.79-10.83 5.49-13.81 10.61-12.48 21.41-24.35 43.16-36.5 64.76-2.15 3.82-3.49 9.49-8.7 9.23-4.62-0.23-5.09-5.48-5.59-9.28-1-7.29-5-9.55-11.79-8.23-8 1.56-7.22 7.53-6.27 13.2 0.45 2.7 1.19 6.26 3.1 7.66 18.47 13.55 8.91 26.63 0 40.16-8.65 13.16-16.78 26.67-25.13 40-17.68-4.31-23.83-20.1-26-33.88-3.3-20.38-4.51-42.49-0.11-62.43 9.83-44.61 20-89.85 55-123.85 19.14-18.62 70.17-23.44 92.89-8.53 10.2 6.7 20.29 12.28 29.22 21.73 22.55 23.85 20.82 50.9 16.11 79.13-6.41 38.38-23.83 71.18-52.75 97.28-22 19.88-47.07 34.76-76.44 41.62-7.85 1.86-11.64-2.28-15.53-7.36zm45.17-205.89c-0.56-9-5.29-12.58-13.25-12.29-11.31 0.42-15.78 7.8-15.82 17.68 0 8.44 5 13.21 14.06 12.73 12.18-0.65 13.01-10.17 15.01-18.12z"/> <path class="cls-4" transform="translate(-1.68 1.38)" d="m3388.4 2928.8c-12.11-21.82-24.33-43.59-36.26-65.52-2.84-5.22 0.35-9.44 3.39-13.82a58.1 58.1 0 0 0 7.55-14.93c1.53-4.75-1.11-9.26-5.47-11.28-6.64-3.08-5 4-6.84 6.62-2.46 3.52-2.87 9.57-8.76 8.76-5.26-0.73-5.39-6.52-7.5-10.31-12.62-22.62-25.14-45.31-38.05-67.76-3.44-6-8.87-12.32-16.3-7.68-7.16 4.47-2.08 11.08 0.8 16.38q38.33 70.59 76.77 141.12c2.94 5.42 5.35 11.13 8 16.71-12.65 8.44-25.68 1.47-36.92-1.81-34.33-10-60.42-31.49-80.71-61.6-9-13.44-17.31-26.65-23.94-41.42-5.74-12.78-9.51-25.1-6.43-39 19.29 3.5 22.72 0.38 18.53-18.21-2.14-9.49-3.06-18.6-0.28-28.12 7.42-25.35 24.67-41.81 47.4-53.49 53.23-7.13 78.93 30.2 108.29 64.35 13.77 16 11.22 33.21 15.76 50.22 5.54 20.72 7.08 41.9 9.59 62.63 2.41 19.93-4.1 40.69-18 57.3-3.2 3.9-7.05 7.26-10.62 10.86z"/> <path class="cls-3" transform="translate(-1.68 1.38)" d="m3283.4 2683.4c-22.73 11.68-40 28.14-47.4 53.49-2.78 9.52-1.86 18.63 0.28 28.12 4.19 18.59 0.76 21.71-18.53 18.21-7.72-44.68 7.65-78.73 42.78-95.3 7.34-3.46 14.77-5.42 22.87-4.52z"/> <path class="cls-2" transform="translate(-1.68 1.38)" d="m3328.4 2239.4q1.58 2.93 3.14 5.86-1.53-2.94-3.14-5.86z"/> <path class="cls-2" transform="translate(-1.68 1.38)" d="m3650.8 2269c1-2.07 2.07-4.14 3.1-6.2z"/> <path class="cls-2" transform="translate(-1.68 1.38)" d="m3654.8 2261.7 0.37-0.25z"/> <path class="cls-3" transform="translate(-1.68 1.38)" d="M1375.13,2864c-18.91-3.12-30.23-14.69-29.83-30.51.46-18.06,15.85-34.65,34.81-34.88,53.71-.65,107.44-.42,161.16-.44q643.89-.22,1287.78-.37c17,0,33.92.63,50.87,1,3.44,11.42,13,21,10.38,34.24l-74.62-.12-75.16,0-54-.06c-5.09-.16-10.17-.47-15.26-.47q-574.36,0-1148.74.06c-42.42,0-84.84.35-127.26-.15-11.25-.13-17,4.15-18.39,14.88C1376.15,2852.8,1375.71,2858.42,1375.13,2864Z"/> <path class="cls-4" transform="translate(-1.68 1.38)" d="M1334.31,3151.76c5.17,76,1,152.16,2.07,228.24.45,32.34-19.24,50.6-51.64,50.81-27.4.18-54.78,6.25-82.24.17-5.82-1.29-12.56,1.47-17.41-4.06-1.08-9.49-3.09-19-3.11-28.47-.1-76.65.53-153.31,0-230-.09-14.34,5.45-16.91,17.91-16.22a728.4,728.4,0,0,0,94.6-.69Z"/> <path class="cls-3" transform="translate(-1.68 1.38)" d="m1050.2 3429.7c-13.54 0.24-27.08 0.75-40.62 0.67-31.23-0.18-54.22-21.71-54.77-53.37-1.12-63.8-2.15-127.64-0.93-191.42 0.37-19.51 6.69-39.53 25.3-52 8-5.32 15.48-11.3 23.2-17 4.28-1.81 9-3.29 13.07-0.67 13.92 8.92 30.49 12.08 44.56 20.2 23.92 13.8 38.51 33.34 37.76 63.14-1.18 46.37-0.47 92.78-0.73 139.17-0.19 32.94-11.69 60.51-38.65 80.78-3.43 2.64-7.27 5.61-8.19 10.5z"/> <path class="cls-3" transform="translate(-1.68 1.38)" d="M1294.49,3151.58a728.4,728.4,0,0,1-94.6.69c-12.46-.69-18,1.88-17.91,16.22.53,76.65-.1,153.31,0,230,0,9.49,2,19,3.11,28.47-19.47-10.82-30.45-25.69-29.51-49.65,1.3-33.31-.26-66.72.17-100.08.14-10.73-2.92-15.91-14.13-14.21-4.87-15.4-4.07-30.71.76-45.95,9.42.34,14.1-2.67,13.52-13.61-1.17-22-.84-44-1.15-66.05-.45-30.73,13.28-51.57,42.36-63.59,2.84-1.17,5.61-1.91,5.34-5.22-1-12.15,8.2-7.41,13.84-8.56,1.47,8.51,7.9,11.79,15.08,14.22C1268.58,3086.82,1293.38,3109.54,1294.49,3151.58Z"/> <path class="cls-3" transform="translate(-1.68 1.38)" d="m2170.4 1090.6c-18.52 5.15-19 5-14.19-13 16.05-59.54 59.07-91.29 114.81-108.58 24.76-7.69 50.6-10.45 76.73-10.43 133.93 0.09 267.86-0.27 401.79-0.17 78 0.06 147 25.85 212.18 68.4 60.14 39.3 103.62 90.58 132.47 155.44-2.93 1.17-6 2.2-7.28 5.51-4.15-6.68-8.6-13.21-12.4-20.08-21.84-39.46-43.05-79.37-80.36-107.22-59.53-44.45-125-74.91-199.34-84.37-5.06-5-11.53-3.86-17.62-3.87q-226.74-0.12-453.49-0.1c-6.08 0-12.61-1.23-17.22 4.54-22.51 4.71-44.53 10.63-65.58 20.45-40.28 18.84-60.62 52.07-70.5 93.48z"/> <path class="cls-3" transform="translate(-1.68 1.38)" d="M3599.19,3015.64q-113.4.38-226.79.75c-7.38,0-14.7.44-21.44,3.84-2.63,1.32-5.07,3.54-4.06,6.57,1.16,3.49,4.39,2.48,7.1,1.65,1.62-.5,3.24-1,4.83-1.54,12.51-4.53,24.79-2.19,32,8s6.23,23.18-3,32.86c-9.73,10.22-21.33,14.83-34.65,5.3-1.12-.81-2.91-.69-4.63-1.05-1.71,8.12,6.52,12,6.79,18.8-4.46.65-8.9,1.69-13.38,1.9-26.66,1.23-44.43-.49-41.43-37.88,1-12.3-.05-24.79-.41-37.19-.42-14.29,6.2-22.24,20.51-23.61a101.3,101.3,0,0,1,10.1-.82q134.49.45,269,1.06c3.93,0,7.84.79,11.75,1.2q-.91,6.39-1.79,12.76Zm-257,43,1.3-.78v-15.41l-1.3.25Z"/> <path class="cls-3" transform="translate(-1.68 1.38)" d="m3101.1 2106c6.18 17.21 5.8 35.38 6.19 53.12 7.5 337.93 2.88 675.91 3.37 1013.9 0.06 36.09-2.15 72.19-3.3 108.28a6.62 6.62 0 0 0-3.08-0.46l-2.61-3.58c-0.74-10.13 1.48-20.42-1.79-30.39l-2.14-2.88c4.79-245.23 0.85-490.49 2.07-735.73 0.25-50.33-0.32-100.67-0.52-151a194.55 194.55 0 0 0 0-54.53l-0.54-54c3.83-47.5 2.57-95.1 2.35-142.71z"/> <path class="cls-3" transform="translate(-1.68 1.38)" d="m1442.4 2954.9 21 0.76c2.88 20 4.64 21.11 22.83 13.47 13.85-5.81 25.62-1.7 35.66 7.83 8.35 7.92 11.36 18.37 7.86 29.5-3.84 12.24-13.78 16.63-25.79 18.55s-16.31-8.27-25-14.25c-4.27 16.63 2.56 31.44 5.94 45.59 6.51 27.25 9 55.42 18.89 81.91 13.5 36.19 28.4 71.12 54.38 101 15 17.31 32.48 31.91 47.69 48.82 2.8 3.1 8.26 5.11 4.33 10.88-72.09-41.81-117.38-103.76-135.48-184.7-11.91-52.85-25.21-105.5-32.31-159.36z"/> <path class="cls-3" transform="translate(-1.68 1.38)" d="M2183.43,1160.12l14.08,5.79c-1.32,10.43-9.64,9-16.7,10-28.32,4.34-56.63,8.42-82.51,22.26-27.32,14.6-46.79,38.07-68.49,59-6,5.75-1.39,8.88,4.59,10,9.74,1.87,16.48,6.21,11.8,17.16-4.12,9.64-11.23,11.47-20.54,5.61-7.07-4.45-10.72.24-11.6,6.65-.9,6.62-.51,13.42-.69,20.14-4.49.46-9,1.22-13.46,1.33-16.91.4-20.87-4.88-17.23-21.47C2004.81,1196,2102.78,1147.74,2183.43,1160.12Z"/> <path class="cls-3" transform="translate(-1.68 1.38)" d="m3364.8 3332.8q1.92 30.95 3.86 61.9c0.9 14 7.42 25.47 16.82 35.5-30.92 5.06-37.71-12.8-39.85-34.7-8.29-84.4-16.24-168.84-24.4-253.26-0.49-5-2.06-10-2.45-15-0.48-6.05-3.42-14 1.87-17.61 5.86-4 14-3.62 20.17 2.14 7.07 26.67 8.93 54.15 9.94 81.43 0.8 21.34 7.61 41.77 7.18 63.08-1.33 7.11-0.45 14.06 1.53 20.94a95.21 95.21 0 0 0 3.11 34.34c-0.97 7.26-2.19 14.54 2.22 21.24z"/> <path class="cls-3" transform="translate(-1.68 1.38)" d="m3096 1264.7c9.38 10.4 9.55 23.65 10.87 36.37 5.72 55.16 3.25 110.52 3.39 165.8 0.36 146.23 0.23 292.46 0.41 438.69 0 7.29 1.08 14.58 1.65 21.88l-0.94 0.72-3.87 1.19c-12.45 0.17-7.23-9.54-7.25-14.71q-0.64-131.27-0.45-262.53c0-114.05 0.21-228.1-0.06-342.14-0.04-15.09-2.44-30.18-3.75-45.27z"/> <path class="cls-3" transform="translate(-1.68 1.38)" d="m2815.2 1753.2q3.34 13.53 6.68 27c-34.66-19.82-46.26-63.88-26.2-99.5 18.06-32.06 63.57-46 95.37-29 3.77 2 6.52 5.93 9.75 9-17 7.66-36-4.61-52.72 5.57-5.54 2.45-11.53 4.37-13.24 11.3l-9 7.08c-2.53 0.81-4 2.38-3.81 5.2-7.4 3.64-7.07 12-10.85 17.83-7.78 16 1.03 30.51 4.02 45.52z"/> <path class="cls-3" transform="translate(-1.68 1.38)" d="m3114.7 3335.6c-0.63 3.93-1 8.75-4.72 10.39-8.35 3.64-9.92 9.13-8.16 17.56 1.28 6.13 0 12.64-6.59 16-6 3.07-11.29 3.41-16.12-3.25-4-5.59-7.79-2.71-9.31 2.84-1.17 4.29-1.72 8.76-2.56 13.15l-6.41 1.13c-9.63 1.36-12.68-3.42-12.61-12.41 0.19-23.91 19.08-43.76 44.75-45.86 7.18-0.6 14.48 0.26 21.73 0.45z"/> <path class="cls-3" transform="translate(-1.68 1.38)" d="M2920.05,2000.15c-8.66.73-13.52,6.48-18.3,13-5,6.75-10.6,13.37-20.72,9.63-2.32-27.37,28.1-51.91,54.68-49.43,11,1,22.51,3.15,25.39,17.09-10.35-4-20.24-5.07-29.41,5.27,9.67,4.59,12.47,13.26,14.3,22.5-18.54,5.58-24,1.9-24.38-16.43.25-.83.52-1.65.78-2.47Z"/> <path class="cls-3" transform="translate(-1.68 1.38)" d="m2035.1 1336.1c1.1 11.77-9 13.8-16.09 15.62-29.15 7.45-29.75 7.66-25.66 37-20.75 1.48-29.48-3.71-31.06-18.49-1.71-16 12.8-34.29 29.14-35 14.57-0.62 29.11 0.51 43.67 0.87z"/> <path class="cls-3" transform="translate(-1.68 1.38)" d="m2828.7 1878.2c-10.45 0.88-14.12-5.52-14.42-14.38-0.33-9.88 0.91-19.77 12.66-22.75a102.51 102.51 0 0 1 49.78-0.07c-2.62 15.85-11.61 22-27.8 20.62-10.74-0.93-20.94 1.97-20.22 16.58z"/> <path class="cls-3" transform="translate(-1.68 1.38)" d="M3116.61,1998c4.41,23.2,4.41,23.19-20.52,23-9.61-.07-19.23.19-28.82-.27-5.42-.25-11.9.3-14.28-6.52-2.27-6.49-1-12.25,5.13-16.29Z"/> <path class="cls-3" transform="translate(-1.68 1.38)" d="m1745.3 3293.6c6.26 14.67 1.4 24-12.77 31-15.31 7.58-20.35 23.48-26.49 38.09-14.28-31.85 4.74-65.33 39.26-69.09z"/> <path class="cls-3" transform="translate(-1.68 1.38)" d="m1259.4 2986.1c-3.57 1.5-7 3.52-10.73 4.43-17.77 4.36-28.12 14.16-26.65 33.79 0.28 3.73-1.46 7.61-2.26 11.42-13.94 2.8-21.17-1.84-21.54-17.13-0.54-22.56 5.22-33.47 20.68-33.79 13.49-0.27 27 0.8 40.5 1.28z"/> <path class="cls-3" transform="translate(-1.68 1.38)" d="m1056.8 3050.3q-0.75 3-1.49 5.92c-3.92 0.31-7.82 0.74-11.74 0.92-21.18 1-23.15 2.84-24.65 24.49-0.2 2.78 0.06 5.6 0.11 8.4-6.49 0.35-16.3 4.27-18.53-2-3.85-10.79-4.86-23.76-0.13-34.55 3.36-7.67 13.05-7.14 21.2-6.28 11.72 1.27 23.48 2.1 35.23 3.1z"/> <path class="cls-3" transform="translate(-1.68 1.38)" d="m2183.2 1108.4c1.09 9.07-1.25 15.88-11.95 15.16-13.23-0.87-19.18 6.13-21.38 18-5.87-2-17.11 9.42-17.39-6.37-0.21-11.72-1.48-25.63 15.16-27.38 11.71-1.26 23.7 0.28 35.56 0.59z"/> <path class="cls-3" transform="translate(-1.68 1.38)" d="m2577.2 3293.4c-5.94 18.21-12.71 36.18-33.36 42.3-11.34 3.36-5.92 13.27-9.56 19.47-4.41-37.4 9.68-57.72 42.92-61.77z"/> <path class="cls-3" transform="translate(-1.68 1.38)" d="m3116.8 1943.4c-2.41 27.79-5.77 31.73-30.05 35.33-7.8-10.37-5.34-21.47 1-30.36 7.06-9.92 18.76-6.42 29.05-4.97z"/> <path class="cls-3" transform="translate(-1.68 1.38)" d="m3062.6 3410.3c2.47 6.61 0.94 13.08-0.66 19.55-7.76 0.7-15.51 1.53-23.27 2.09-7.09 0.5-14.77-0.53-15.22-8.93s5.93-12.82 14.22-13 16.62 0.16 24.93 0.29z"/> <path class="cls-3" transform="translate(-1.68 1.38)" d="m3107.7 3289.3c10.82 9.67 1.91 18.48-1.19 27.55-6.72-1.33-18 9.43-19.25-6.07-1.07-13.52 4.7-22.86 20.44-21.48z"/> <path class="cls-3" transform="translate(-1.68 1.38)" d="m3018 1987.4c1 5.37 2.34 10.7 2.89 16.12 1.08 10.69-2.49 18.47-14.22 20.39-1.83-13.93-8.67-29.37 11.33-36.51z"/> <path class="cls-3" transform="translate(-1.68 1.38)" d="m1736.3 3412.5c13.07 4.16 6.53 15.68 9 23.84-2.52-1-5-2.54-7.58-2.83-5.78-0.64-12.66 1.48-12.71-8.33-0.05-8.05 2.61-12.82 11.29-12.68z"/> <path class="cls-3" transform="translate(-1.68 1.38)" d="m2988 2017-18.74-0.22c-0.09-1-0.19-2-0.29-3.07q-0.12-6-0.26-12a50.89 50.89 0 0 1 6.51-1.27c17.41-1.05 18.37 0.22 12.78 16.56z"/> <path class="cls-3" transform="translate(-1.68 1.38)" d="m2914.4 1670.8c-6.26-0.12-10.14-2.91-10.64-9.49z"/> <path class="cls-3" transform="translate(-1.68 1.38)" d="m3097.3 1189.3-3.57-7.15z"/> <path class="cls-3" transform="translate(-1.68 1.38)" d="m1604.9 2526.7c-26-0.78-49.3-22.74-48.12-46.63 1.7-34.18 14.3-51.94 45.42-50.7 34.26 1.37 49.61 21.52 49.9 54 0.22 24.29-22.55 44.07-47.2 43.33z"/> <path class="cls-3" transform="translate(-1.68 1.38)" d="m1517.6 2648c0.41 26.77-21 48.12-48.53 48.43-27 0.31-49.18-21.74-49.81-49.41-0.58-25.6 20.36-46.51 47.27-47.23 25.49-0.69 50.69 23.09 51.07 48.21z"/> <path class="cls-3" transform="translate(-1.68 1.38)" d="M1201.59,1615.11l7.72,1.39c6.41,7.7,10.48,17,17.93,24.13,8,7.63,8.45,17.32.79,25.48-9.45,10.06-4.57,13,5.83,13.62,3.27.21,6.65-1.16,9.5,1.5-7.59,7.8-16.94,10.23-27.64,10.2-98.84-.33-197.69-.33-296.53-.7-22.61-.08-39.32-17.61-39-39.72.31-23,14.59-36.68,38.78-36.73q132.15-.27,264.32-.38c5.62,0,11.24.6,16.85.92,0,0,.55,1.14.55,1.14Z"/> <path class="cls-3" transform="translate(-1.68 1.38)" d="m1345.3 1689.3c-14.87-1.23-20.19-11.41-20.65-24.18-0.76-21.47-1-43-0.17-64.46 1-25.29 34.38-47.65 60.9-41.65 0.36 7.7 5.65 9 12 11.24 25.34 9.07 48.74 20.69 49.49 53-27.65 0.18-55.31 0.61-83 0.39-10.46-0.09-15 3.17-15.46 14.48-0.46 12.82 4.35 16.44 16.61 16.78 27.55 0.74 55.25-3.15 82.65 2.28a65.27 65.27 0 0 1-24.48 17.53c-11.16-0.31-22.4 0.12-33.46-1.11-17.58-1.96-36.38-8.81-44.43 15.7z"/> <path class="cls-4" transform="translate(-1.68 1.38)" d="M1447.67,1657.17c-27.4-5.43-55.1-1.54-82.65-2.28-12.26-.34-17.07-4-16.61-16.78.41-11.31,5-14.57,15.46-14.48,27.65.22,55.31-.21,83-.39l33.58-.26c1.18,11.42,4.94,22.78.82,34.34Z"/> <path class="cls-3" transform="translate(-1.68 1.38)" d="m1396.9 1505.1q-2.58 16.2-5.15 32.39c-16.7 4.42-22.57-2.56-19.89-18.76 0.37-2.2 0-4.51 0-6.77 0.22-25 0.22-25 25.15-23.66 8.96 5.68-0.2 11.2-0.11 16.8z"/> <path class="cls-3" transform="translate(-1.68 1.38)" d="m865.67 1708.4q0.39 15.27 0.8 30.54c-11.94 2.16-23-0.86-23-14 0-11.76 9.53-18.03 22.2-16.54z"/> <path class="cls-4" transform="translate(-1.68 1.38)" d="m3548.8 1636c3.35 20.63 1.2 41.43 2.07 62.12 0.42 10.13-3.5 14-13.67 13.84-30.27-0.37-60.56-0.08-90.83 0 0.21-19.15 1.07-38.31 0.41-57.42-0.44-12.75 2.9-18.23 16.9-17.39 17.93 1.07 36-0.2 54-0.47 10.4 0.32 20.8 1.73 31.12-0.68z"/> <path class="cls-3" transform="translate(-1.68 1.38)" d="m3517.7 1636.6c-18 0.27-36.09 1.54-54 0.47-14-0.84-17.34 4.64-16.9 17.39 0.66 19.11-0.2 38.27-0.41 57.42-14.89 2.81-20-4.06-20.38-18.4-0.67-23.09-0.05-46.17-2.08-69.32-3-33.69 31.45-64.44 61.8-57.19 16.28 20.6 33.28 40.9 31.97 69.63z"/> <path class="cls-3" transform="translate(-1.68 1.38)" d="m3347.9 1711.3-29.81 0.37c-0.61-2.33-1.72-4.6-4.44-4-1.06 0.25-1.65 2.57-2.45 4-15 3.69-21.38-1-20.5-17.55 1.1-20.73-0.29-41.6-0.6-62.41-0.24-16.47 11.37-33.54 24.65-36.26 21.94-4.49 39.1 3.45 47 21.73-10.86 1.67-14.33 9.54-12.49 18.56 2.67 13.14 0 25.79-0.36 38.68-0.38 12.27-5.33 24.48-1 36.88z"/> <path class="cls-3" transform="translate(-1.68 1.38)" d="M3616.8,1685.15l-1.86-21.11c2.2-4.21,1.43-8.31-.46-12.37-.17-7.34-.26-14.69-.51-22-.79-22.37,6.39-31,29.23-35,6.9,3.91,19.25-3,21.34,10.7,3.84,25.26,2.64,51.42,13.5,75.45.17.37-1.43,1.54-2.21,2.34Z"/> <path class="cls-4" transform="translate(-1.68 1.38)" d="m3616.8 1685.2 59-2 8.56 0.47c0.15 3.91 0 7.85 0.5 11.73 1.55 13.18-4.22 18.33-17.28 17.22-8.32-0.7-16.76 0-25.14 0.07-27.87 0.36-27.87 0.41-25.64-27.49z"/> <path class="cls-3" transform="translate(-1.68 1.38)" d="m3283.7 1733c-12.25 7.34-18.41 20.14-27.3 30.49-11.59-1.93-16.69-9.27-14-20.18 2.56-10.45 11.61-12.65 21.26-12.09 6.68 0.37 13.31 1.14 20.04 1.78z"/> <path class="cls-3" transform="translate(-1.68 1.38)" d="m3488.3 1515.9c2.38 14.77-6 25.36-14 36.09-19.81 0.93-11.41-14.65-13.46-23.68-2.22-9.76 3-14.55 12.73-14.14 4.91 0.2 9.82 1.13 14.73 1.73z"/> <path class="cls-3" transform="translate(-1.68 1.38)" d="m3474.7 1478.7c-11.38-1.6-22.31 1.31-33.21 3.73-5.67 1.25-12.1 3.91-14.08-3.47-2.21-8.25 5.33-10.22 11.32-11.32 13.16-2.42 26.45-4.15 39.67-6.16 2.83 6.61 3.17 12.68-3.7 17.22z"/> <path class="cls-3" transform="translate(-1.68 1.38)" d="m3645.1 1550.4c7.82 1.87 16.44 2.85 15.82 13.81-0.64 11.31-9.68 12.76-18.14 13.74-11 1.28-11-8.24-11.86-14.72-1.34-9.91 6.78-11.42 14.18-12.83z"/> <path class="cls-3" transform="translate(-1.68 1.38)" d="m3326.9 1579.1c-5.45-0.38-11.47-0.23-11.39-7.21 0.08-7.79 5-12.43 12.82-12.42 6.24 0 10.5 3.57 11 10.25 0.66 9.73-7.73 7.38-12.43 9.38z"/> <path class="cls-4" transform="translate(-1.68 1.38)" d="m3614.5 1651.7c1.89 4.06 2.66 8.16 0.46 12.37-2.4-4.04-2.3-8.18-0.46-12.37z"/> <path class="cls-3" transform="translate(-1.68 1.38)" d="M1053,2353.93c-18.47-4.58-26-13.16-26.16-33.45-.49-47.3,0-94.6-.29-141.89q-.55-101.64-1.63-203.26c-.22-23.71,4.62-29,28.21-29.14q107.57-.46,215.13-.65c12.66,0,26,.11,25.16,18.72-31-1.34-32.38,0-32.44,31.16q-.23,112.66-.48,225.32c-59.41.09-118.82-.1-178.22.38-33.35.27-27.57-4.73-29.39,28.51-.94,17.2,5.41,20.22,21.15,20,62.79-.86,125.6-.24,188.4-.16q.18,9.81.34,19.63c-63.77.09-127.54.67-191.3-.08-15.21-.18-20,4.49-18.85,19.23C1053.75,2323.4,1052.91,2338.7,1053,2353.93Z"/> <path class="cls-4" transform="translate(-1.68 1.38)" d="m1053 2353.9c0-15.23 0.8-30.53-0.37-45.67-1.13-14.74 3.64-19.41 18.85-19.23 63.76 0.75 127.53 0.17 191.31 0.08l29.69 0.38c3.92 58.21-2.09 65.3-60 65.51-59.9 0.22-119.72-0.67-179.48-1.07z"/> <path class="cls-4" transform="translate(-1.68 1.38)" d="M1262.39,2269.48c-62.8-.08-125.61-.7-188.4.16-15.74.21-22.09-2.81-21.15-20,1.82-33.24-4-28.24,29.39-28.51,59.4-.48,118.81-.29,178.21-.38l32.45,0q.12,24.42.25,48.85Z"/> <path class="cls-3" transform="translate(-1.68 1.38)" d="m866.22 1994.3c-12.43-13.31-13.83-31.23-3.81-48.84 16.66-29.29 57.33-34.6 78.62-10.25-25.57-9.1-27.37-8.38-27.21 10.89-11.89 2.91-22.33 7.8-27.42 20-16.16 0.4-20.75 6.81-20.18 28.2z"/> <path class="cls-3" transform="translate(-1.68 1.38)" d="m1440.2 1963.4c-36.61 8.51-73.71 6.21-110.73 4.76a52.47 52.47 0 0 0-15 1.42c-2.89-7.25-4.19-12.9 7.23-12.75 35.25 0.46 70.5 0.32 105.75 0.49 5.15 0.02 10.22 0.49 12.75 6.08z"/> <path class="cls-3" transform="translate(-1.68 1.38)" d="m1007.8 1976.7c-13.39-9-85.27-8.83-98.11 0.29a6.76 6.76 0 0 1-1.15-2.44l0.15-4.77c0.28-7.61 4.11-10.48 11.81-10.61 24.87-0.42 49.73-1.68 74.6-2.18 16.71-0.34 18.58 2.89 12.7 19.71z"/> <path class="cls-3" transform="translate(-1.68 1.38)" d="m1457.1 1920.8c-10.65 5.12-8.56 17.07-13.53 25.23-9.48 0.66-19.12-1.08-28.47 2.2-2.85 1-6.79 2.84-8.62-1.55-1.43-3.45 0.55-6.52 2.7-9.25 12.43-15.74 28.53-20.93 47.92-16.63z"/> <path class="cls-3" transform="translate(-1.68 1.38)" d="m866 1993.8 0.18 3.63z"/> <path class="cls-3" transform="translate(-1.68 1.38)" d="m3458.5 2713.9c-1 8.76-5.12 14.17-13 14.07-9.32-0.11-14.78-6.44-14.78-15.35 0-8.66 6.95-13.43 14.61-13.39 9.05 0.04 10.51 8.8 13.17 14.67z"/> <path class="cls-3" transform="translate(-1.68 1.38)" d="m3691 2719.3c-2.06 7.95-2.85 17.47-15 18.12-9.07 0.48-14.08-4.29-14.06-12.73 0-9.88 4.51-17.26 15.82-17.68 7.97-0.29 12.7 3.27 13.24 12.29z"/> <path class="cls-3" transform="translate(-1.68 1.38)" d="m1534.7 3059.4c-1.55 23.19-7.51 43.14 3.08 62.58 2.15 4 1.14 10.22-3.77 13.64a8.57 8.57 0 0 1-11-0.48c-4.9-4.14-6.52-10.76-3.16-15.22 7.63-10.17 2.06-16.4-4.71-22.77-12-11.24-12.06-27.31-16.44-41.45-2.78-9 2.11-16.81 12.08-18.9 9.73-2.05 18.12 0.15 21.33 11.11 1.44 4.79 2.22 9.76 2.59 11.49z"/> <path class="cls-3" transform="translate(-1.68 1.38)" d="m2926.4 2617.3c-39.15 2.94-56.23-5-67.24-31.27-14.92-35.54 2.36-72.38 51-71.9 36.29 12.08 48.35 28 47.55 60.28-0.51 22.01-15.49 32.54-31.31 42.89z"/> <path class="cls-3" transform="translate(-1.68 1.38)" d="m2587.3 2493.6c0.83-31.34 24.55-57.23 52.74-54 28.87 3.31 53.74 22 52.83 56.62-0.76 28.72-26.68 52.17-56.41 50.93-28.7-1.19-49.94-24.33-49.16-53.55z"/> <path class="cls-2" transform="translate(-1.68 1.38)" d="m2785.5 3204.8c-5.51-3.17-9.85-7.21-5.52-14.09 13.32-21.11 24.32-43.12 29.5-67.78 1.22-5.81 6.45-5.4 11-5.1 5.42 0.36 9.38 4 8.2 8.73-6.9 27.49-17.66 53.31-36.17 75.27-1.24 1.5-4 1.75-7.01 2.97z"/> <path class="cls-2" transform="translate(-1.68 1.38)" d="m2765.3 3226.9c-0.37 4.43-3.65 6.9-6.57 9.51-16.63 14.89-36.19 25-56.24 34.29-5.7 2.63-11.53 3.35-14.62-3.18-3.44-7.23 2.39-10.06 7.76-12.37 19.38-8.32 37.55-18.43 52.22-34 3.37-3.57 7.5-5.11 12.2-2.29 3.03 1.81 5.42 4.14 5.25 8.04z"/> <path class="cls-3" transform="translate(-1.68 1.38)" d="m2107.8 1229.8c-9.57-0.88-12.81-6.17-12.56-13.93 0.26-8.1 5.2-12.74 12.9-12.72 7.55 0 13.49 4.56 13.09 12.46-0.41 8.16-6.66 12.45-13.43 14.19z"/> <path class="cls-3" transform="translate(-1.68 1.38)" d="m3101.2 2095.3c0.08-3 0.15-6 0.22-9.05 2.96 3.09 3.22 6.11-0.22 9.05z"/> <path class="cls-2" transform="translate(-1.68 1.38)" d="m2823.8 1752.2c2.55-5.11 5-10.39 12.19-9.62 3.76 0.41 6.59 2.28 7.4 5.87 1.41 6.21-4.74 6.64-7.84 9.37z"/> <path class="cls-2" transform="translate(-1.68 1.38)" d="m2896.3 1723.5c-3.12-1.37-6.49-2.79-1.94-6.36a20.43 20.43 0 0 1 15.22-4.28c3.19 13.04-4.26 12.82-13.28 10.64z"/> <path class="cls-2" transform="translate(-1.68 1.38)" d="M2834.82,1677.66c3.87-.12,5.44,3,7.88,5.19,3.59,3.16,9.76,5.28,5.55,11.39-4.37,6.33-7.67-.79-10.62-2.45-4-2.22-10.4-.66-11.8-7Z"/> <path class="cls-2" transform="translate(-1.68 1.38)" d="m2876.6 1715.3c-6.79-5.2-19.45-6.48-13.44-20.19 12.76 1.22 11.57 11.72 13.44 20.19z"/> <path class="cls-2" transform="translate(-1.68 1.38)" d="m2857.2 1722.3c5.33 0.77 9 3.3 9.27 8.48s-2.1 8.7-8 8.39c-5.52-0.3-8.11-3.59-8-8.8 0.15-4.36 2.44-7.33 6.73-8.07z"/> <line class="cls-5" x1="1609.8" x2="2696" y1="3454.5" y2="3454.5"/> <path class="cls-2" transform="translate(-1.68 1.38)" d="M1549.74,3453.2c-17.25,0-34.55.05-51.8.05v-.1Z"/> <path class="cls-2" transform="translate(-1.68 1.38)" d="M2699.85,3515.56a1.83,1.83,0,0,1-.41.18s0,0,0-.09Z"/> </svg>